<svg xmlns="http://www.w3.org/2000/svg" id="Composant_4_1" data-name="Composant 4 &#x2013; 1" width="171" height="171" viewBox="0 0 171 171"><rect id="Rectangle_347" data-name="Rectangle 347" width="171" height="171" fill="#fff"></rect><g id="Calque_2" data-name="Calque 2" transform="translate(23 41.042)"><g id="INFORMATIQUE"><path id="Trac&#xE9;_663" data-name="Trac&#xE9; 663" d="M79.41,436.49h1.457v7.943H79.41Z" transform="translate(-64.782 -356.082)" fill="#259ab3"></path><path id="Trac&#xE9;_664" data-name="Trac&#xE9; 664" d="M108.717,436.49h1.73l2.64,6.236h.022V436.49h1.319v7.943h-1.741l-2.634-6.191h-.024v6.191H108.71Z" transform="translate(-88.684 -356.082)" fill="#259ab3"></path><path id="Trac&#xE9;_665" data-name="Trac&#xE9; 665" d="M161.18,436.49h4.02v1.161h-2.561v2.163h2.446v1.161h-2.448v3.46H161.18Z" transform="translate(-131.488 -356.082)" fill="#259ab3"></path><path id="Trac&#xE9;_666" data-name="Trac&#xE9; 666" d="M203.5,435.87c1.658,0,3.163,1.231,3.163,4.086s-1.512,4.084-3.163,4.084-3.163-1.229-3.163-4.084S201.852,435.87,203.5,435.87Zm0,7.055c.921,0,1.658-.785,1.658-2.97s-.737-2.97-1.658-2.97-1.658.785-1.658,2.97S202.582,442.925,203.5,442.925Z" transform="translate(-163.435 -355.577)" fill="#259ab3"></path><path id="Trac&#xE9;_667" data-name="Trac&#xE9; 667" d="M254.07,436.49h2.481c1.411,0,2.367.637,2.367,2.095a1.783,1.783,0,0,1-1.536,1.866v.033c.295.046.624.184.875.921l1.035,3.027h-1.551l-.785-2.579a1.032,1.032,0,0,0-1.105-.829h-.321v3.413h-1.457Zm2.048,3.46a1.139,1.139,0,0,0,1.29-1.207c0-.91-.477-1.137-1.29-1.137h-.588v2.343Z" transform="translate(-207.267 -356.082)" fill="#259ab3"></path><path id="Trac&#xE9;_668" data-name="Trac&#xE9; 668" d="M307.295,437.811h-.022l-1.991,6.622h-1.035l-1.9-6.622h-.022v6.622H301V436.49h2.174l1.638,5.928h.024l1.673-5.928h2.1v7.943h-1.319Z" transform="translate(-245.552 -356.082)" fill="#259ab3"></path><path id="Trac&#xE9;_669" data-name="Trac&#xE9; 669" d="M364.316,442.521h-2.73l-.569,1.912H359.56l2.66-7.943h1.593l2.561,7.943h-1.5Zm-.308-1.115-1-3.717h-.024l-1.092,3.71Z" transform="translate(-293.324 -356.082)" fill="#259ab3"></path><path id="Trac&#xE9;_670" data-name="Trac&#xE9; 670" d="M408.954,437.651H407.18V436.49h5v1.161h-1.765v6.783h-1.457Z" transform="translate(-332.172 -356.082)" fill="#259ab3"></path><path id="Trac&#xE9;_671" data-name="Trac&#xE9; 671" d="M452.57,436.49h1.457v7.943H452.57Z" transform="translate(-369.2 -356.082)" fill="#259ab3"></path><path id="Trac&#xE9;_672" data-name="Trac&#xE9; 672" d="M483.653,444.04H483.4c-1.658,0-3.163-1.229-3.163-4.084s1.514-4.086,3.163-4.086,3.165,1.231,3.165,4.086c0,1.967-.718,3.163-1.7,3.708l1.571,1.776H484.77Zm-.251-1.115c.921,0,1.658-.785,1.658-2.97s-.737-2.97-1.658-2.97-1.658.785-1.658,2.97S482.482,442.925,483.4,442.925Z" transform="translate(-391.773 -355.577)" fill="#259ab3"></path><path id="Trac&#xE9;_673" data-name="Trac&#xE9; 673" d="M535.367,436.49v5.143c0,1.321.4,1.752,1.251,1.752s1.242-.431,1.242-1.752V436.49h1.455v5.143c0,2.095-1.2,2.912-2.7,2.912s-2.708-.818-2.708-2.912V436.49Z" transform="translate(-435.556 -356.082)" fill="#259ab3"></path><path id="Trac&#xE9;_674" data-name="Trac&#xE9; 674" d="M584.37,436.49h4.169v1.161h-2.712v2.117h2.579v1.161h-2.579v2.343h2.833v1.162h-4.29Z" transform="translate(-476.721 -356.082)" fill="#259ab3"></path><path id="Trac&#xE9;_675" data-name="Trac&#xE9; 675" d="M108.406,254.9a7.161,7.161,0,0,1,5.48-2.356,7.5,7.5,0,0,1,5.689,2.356,9.058,9.058,0,0,1,.1,11.909,7.921,7.921,0,0,1-11.22.053,9.371,9.371,0,0,1-.052-11.963m-3.238,15.2a11.767,11.767,0,0,0,8.77,3.684,12.127,12.127,0,0,0,9-3.574,12.6,12.6,0,0,0,3.542-9.078,12.831,12.831,0,0,0-3.489-9.242,11.712,11.712,0,0,0-8.842-3.647,11.924,11.924,0,0,0-8.927,3.635,12.333,12.333,0,0,0-3.559,9.071,12.6,12.6,0,0,0,3.5,9.157m-60.15-15.916a5.519,5.519,0,0,1,4.093-1.6,5.019,5.019,0,0,1,3.938,1.6,5.935,5.935,0,0,1,1.638,3.927H42.931a7.153,7.153,0,0,1,2.078-3.927M39.667,267.9a12.654,12.654,0,0,0,3.821,4.605,10.945,10.945,0,0,0,6.289,1.684,16.058,16.058,0,0,0,4.887-.623,17.735,17.735,0,0,0,4.263-2.177v-4.9a13.45,13.45,0,0,1-8.511,3.086,7.455,7.455,0,0,1-7.588-7.157H59.293v-.637q0-7-2.395-10.036a9.428,9.428,0,0,0-7.8-3.449,9.814,9.814,0,0,0-7.848,3.57,13.886,13.886,0,0,0-3.03,9.306,14.925,14.925,0,0,0,1.455,6.733M4.616,273.783V255.708a11.1,11.1,0,0,1,2.763-2.5,5.366,5.366,0,0,1,2.677-.671,3.918,3.918,0,0,1,3.614,1.623q1.067,1.676,1.067,5.744v13.875h4.605V255.708q2.542-3.062,5.368-3.062a3.964,3.964,0,0,1,3.448,1.634,8.134,8.134,0,0,1,1.168,4.749v14.75h4.605v-14.8q0-5.5-2.177-8.142a6.753,6.753,0,0,0-2.918-1.931,10.7,10.7,0,0,0-3.773-.713,10.075,10.075,0,0,0-8.22,4.3q-2.236-4.25-6.39-4.25a7.726,7.726,0,0,0-5.849,2.791v-2.325H0v25.075Z" transform="translate(0 -202.47)" fill="#141215"></path><path id="Trac&#xE9;_676" data-name="Trac&#xE9; 676" d="M373.919,248.19v18.07a11.09,11.09,0,0,1-2.763,2.5,5.39,5.39,0,0,1-2.677.669,3.916,3.916,0,0,1-3.614-1.623q-1.067-1.671-1.067-5.74V248.19h-4.609v18.07q-2.54,3.062-5.366,3.063a3.967,3.967,0,0,1-3.45-1.636,8.112,8.112,0,0,1-1.166-4.749V248.19H344.59V263q0,5.5,2.179,8.142a6.767,6.767,0,0,0,2.916,1.932,10.721,10.721,0,0,0,3.773.713,10.076,10.076,0,0,0,8.221-4.3q2.233,4.252,6.39,4.252a7.732,7.732,0,0,0,5.849-2.793v2.325h4.616V248.19Z" transform="translate(-281.112 -202.47)" fill="#141215"></path><path id="Trac&#xE9;_677" data-name="Trac&#xE9; 677" d="M276.51,12.13V.09l-15.08,14.1V25.919Z" transform="translate(-213.271 -0.073)" fill="#8ac1d0"></path><path id="Trac&#xE9;_678" data-name="Trac&#xE9; 678" d="M188.08,19.527,179.89,0V37.01h8.19Z" transform="translate(-146.752)" fill="#259ab3"></path><path id="Trac&#xE9;_679" data-name="Trac&#xE9; 679" d="M358.368,72.343V60.61L343.29,74.4V86.439Z" transform="translate(-280.051 -49.445)" fill="#8ac1d0"></path><path id="Trac&#xE9;_680" data-name="Trac&#xE9; 680" d="M462.22,17.48l8.19,19.527V0h-8.19ZM470.41,37.007Z" transform="translate(-377.073)" fill="#259ab3"></path><path id="Trac&#xE9;_681" data-name="Trac&#xE9; 681" d="M425.14,72.343l15.021,14.113-8.19-19.529L425.14,60.61Z" transform="translate(-346.823 -49.445)" fill="#073b45"></path><path id="Trac&#xE9;_682" data-name="Trac&#xE9; 682" d="M194.911,14.114,179.89,0l8.19,19.53,6.831,6.315Z" transform="translate(-146.752)" fill="#073b45"></path></g></g></svg>